#!OML:ASF E:/inclinewalkrobotboard/Project1/Captureday1/Session1/subject1.ASF
:FULLY-SPECIFIED
:DEGREES
26
root 0 0 0 -1.7848491529383064 -5.307408664367745 -7.20809931454538
lowerback 10.130763139480017 2.4074035234028637 5.5621555316831115
upperback 0.0783416916439092 3.93289197253087 1.476042501265797
thorax -5.510509916189724 1.8124170293583792 -2.139182406914749
lowerneck -14.9140476878321 -3.3380343164871236 -1.0152690512426457
upperneck 17.573102205201725 -4.569877739307529 1.3012569843546071
head 8.075814467613517 -2.133896028756235 0.08985289456514078
rclavicle -2.3051844026061936E-16 -8.183308238813628E-17
rhumerus -20.33780403723381 -8.03719077155824 -68.16006437867267
rradius 58.22814492171792
rwrist -7.285692063331559
rhand -13.668150867081968 -6.735697346315796
rfingers 7.125019999999877
rthumb 12.474773794302154 -36.01396920323674
lclavicle -8.510977345818545E-16 -4.1443983162266594E-16
lhumerus -39.01352858617548 0.2996929598059746 83.24116241372393
lradius 37.224675336993656
lwrist 2.9396232201778347
lhand -20.12018404758339 2.966929964955707
lfingers 7.125019999999895
lthumb 6.134467224685752 32.549871692062894
rfemur -5.637374813389952 2.986499321356599 16.921774617439766
rtibia 26.86657776659337
rfoot -3.450098896676475 -2.929592337207922
rtoes 3.4587909050720187
lfemur -14.74344066567398 -1.8840024350692917 -13.627990228443817
ltibia 35.935420000529504
lfoot -9.288024118693162 0.9934177710510284
ltoes -19.194043670791025
27
root 0 0 0 -1.761445372141257 -5.287290393485376 -7.1943273603506634
lowerback 10.120965612204095 2.4108097903747603 5.524150324399045
upperback 0.06709703033481912 3.933851900029539 1.4580800487086658
thorax -5.518864385316215 1.8121734458974736 -2.136504463398329
lowerneck -14.82282593646656 -3.332540083875079 -0.9902283102780608
upperneck 17.459415507178043 -4.570959954592794 1.3261620185688554
head 8.03247142605414 -2.1321627325447623 0.09698809802733116
rclavicle -2.2911070947088285E-16 -8.476421547703785E-17
rhumerus -20.309017961220107 -8.001879889593017 -68.12408291492655
rradius 58.34315139919829
rwrist -7.321268527374238
rhand -13.652204378786415 -6.845857961357346
rfingers 7.125019999999876
rthumb 12.490177524921824 -36.12280334946258
lclavicle -8.615248948057993E-16 -4.1965882558986627E-16
lhumerus -39.33975506515268 0.31064681356469703 83.26980059696675
lradius 37.686959888527525
lwrist 2.8012949845372948
lhand -19.775407947735495 1.9123506222595772
lfingers 7.125019999999887
lthumb 6.461398661328291 31.475668728373144
rfemur -6.363439715587498 2.5636107386863194 16.17689668560443
rtibia 28.61525833235357
rfoot -2.0573966029893795 -2.747092878065448
rtoes 4.130521234508414
lfemur -14.282026931742493 -1.9708386593827443 -13.749907833715104
ltibia 35.37098115568438
lfoot -9.67538811203192 1.2087630382725347
ltoes -19.658465021978188
28
root 0 0 0 -1.7202584126418698 -5.2605396921179945 -7.184645978773256
lowerback 10.104878318935464 2.4213040714552676 5.4742882470066085
upperback 0.04745348177490144 3.943174187524542 1.4287234981035035
thorax -5.534251832763208 1.8153439279444856 -2.1407448397713376
lowerneck -14.66978883874763 -3.3246473931534863 -0.9464995620175274
upperneck 17.266737267676103 -4.574740919165147 1.3688155202591288
head 7.959734302280646 -2.1300850747906512 0.10873953425684574
rclavicle -2.2088383485739818E-16 -8.49875518753171E-17
rhumerus -20.163424156059396 -7.844509787098021 -67.96826528850715
rradius 58.82722644852568
rwrist -7.4944551225207645
rhand -13.588317459689272 -7.298359104242817
rfingers 7.125019999999873
rthumb 12.552401314049794 -36.565692951173475
lclavicle -8.606097543944655E-16 -4.146407209516346E-16
lhumerus -39.68856037146961 0.30512778362384696 83.29994672708688
lradius 38.222119199835376
lwrist 2.658531233166027
lhand -19.39639939306832 0.7482767401929369
lfingers 7.125019999999879
lthumb 6.821655650362015 30.283150740452985
rfemur -7.038852944197747 2.485363765783074 16.02892419572617
rtibia 28.99180942659158
rfoot -1.9195778842023297 -2.8935894631003576
rtoes 4.124413282712946
lfemur -13.206581019709486 -2.1959811818221175 -13.999638877090385
ltibia 33.916574765892484
lfoot -10.679448239885865 1.8069747728589887
ltoes -20.919816222631678
29
root 0 0 0 -1.6984035406631 -5.250510322294639 -7.187332749669753
lowerback 10.096415882769342 2.428756591080039 5.457093188517234
upperback 0.03716513511698738 3.951253575836034 1.4148213760148949
thorax -5.542517205116553 1.8186306880069103 -2.1472701560478704
lowerneck -14.594195100550543 -3.3213189047538685 -0.9238851570555022
upperneck 17.16920388986273 -4.577585125796152 1.3907129262689306
head 7.924193348005697 -2.1293451221537616 0.11444635071066805
rclavicle -2.1010878426248418E-16 -8.232688091896013E-17
rhumerus -20.04027029646066 -7.708632440756584 -67.83708867388516
rradius 59.24351442815103
rwrist -7.643043079974702
rhand -13.533003341413478 -7.688831103349621
rfingers 7.1250199999998705
rthumb 12.60604754219468 -36.95029275051395
lclavicle -8.521473564946071E-16 -4.131742792554842E-16
lhumerus -39.84079576838902 0.2987270053021947 83.31329678567108
lradius 38.46726540970255
lwrist 2.5968484736726625
lhand -19.22822933174125 0.22882925264807774
lfingers 7.125019999999875
lthumb 6.982471094504188 29.749753863129097
rfemur -6.898013624230684 2.735836527045934 16.287224025954053
rtibia 27.411410962387045
rfoot -2.946738425288954 -3.129799149757498
rtoes 3.452793684795898
lfemur -12.178854908700774 -2.4153728102165952 -14.23543637001682
ltibia 32.498239808223595
lfoot -11.65076785499436 2.3884617185389656
ltoes -22.13935597815791
